<?xml version="1.0" encoding="utf-8"?>
<!-- Generator: Adobe Illustrator 18.1.1, SVG Export Plug-In . SVG Version: 6.00 Build 0)  -->
<svg version="1.1" id="Слой_1" xmlns="http://www.w3.org/2000/svg" xmlns:xlink="http://www.w3.org/1999/xlink" x="0px" y="0px"
	 viewBox="0 0 612 792" enable-background="new 0 0 612 792" xml:space="preserve">
<g>
	<path d="M573.6,89.8l-77.7,14.4c-1-3.8-2.9-7.7-5.8-10.6c-3.8-2.9-8.6-4.8-12.5-2.9l-141,25.9l-21.1-21.1
		c-3.8-3.8-9.6-5.8-14.4-4.8L29.7,155.1c-7.7,1.9-12.5,8.6-12.5,16.3v415.4c0,7.7,5.8,14.4,13.4,16.3l351.1,64.3c1,0,1.9,0,2.9,0
		c3.8,0,6.7-1,10.6-3.8c2.9-2.9,4.8-6.7,5.8-10.6l77.7,14.4c1,0,1.9,0,2.9,0c3.8,0,6.7-1,10.6-3.8c2.9-2.9,4.8-6.7,5.8-10.6
		l77.7,14.4c1,0,1.9,0,2.9,0c3.8,0,6.7-1,10.6-3.8c3.8-2.9,5.8-7.7,5.8-12.5V108.1c0-4.8-1.9-8.6-5.8-12.5
		C582.3,89.8,577.5,88.9,573.6,89.8z M304.1,128.2l57.6,57.6h-57.6V128.2z M368.4,628.9L48.9,570.4V181l223.5-52.8v71.9
		c0,8.6,6.7,16.3,16.3,16.3h79.6V628.9z M464.3,628.9L400,617.4V184.8c0-4.8-1.9-8.6-4.8-11.5l-31.7-31.7l99.8-18.2v505.5H464.3z
		 M560.2,628.9l-64.3-11.5V135.9l64.3-11.5V628.9z"/>
	<path d="M272.4,376.6c0-52.8-43.2-95.9-95.9-95.9s-95.9,43.2-95.9,95.9s43.2,95.9,95.9,95.9c20.1,0,39.3-6.7,55.6-18.2l77.7,77.7
		c2.9,2.9,6.7,4.8,11.5,4.8s8.6-1,11.5-4.8c6.7-6.7,6.7-16.3,0-22.1l-77.7-77.7C265.7,416.9,272.4,397.7,272.4,376.6z M176.5,440.9
		c-35.5,0-64.3-28.8-64.3-64.3s28.8-64.3,64.3-64.3s64.3,28.8,64.3,64.3S212,440.9,176.5,440.9z"/>
</g>
</svg>
