<?xml version="1.0" encoding="utf-8"?>
<!-- Generator: Adobe Illustrator 18.1.1, SVG Export Plug-In . SVG Version: 6.00 Build 0)  -->
<svg version="1.1" id="Слой_1" xmlns="http://www.w3.org/2000/svg" xmlns:xlink="http://www.w3.org/1999/xlink" x="0px" y="0px"
	 viewBox="0 0 612 792" enable-background="new 0 0 612 792" xml:space="preserve">
<g>
	<path d="M522.1,179.9C464.1,122,386.9,90.6,306,90.6c-82.1,0-158.1,31.4-216.1,89.3C32,237.9,0.6,315.1,0.6,396
		S32,555.3,89.9,612.1c57.9,57.9,135.2,89.3,216.1,89.3c82.1,0,159.3-31.4,216.1-89.3c57.9-57.9,89.3-135.2,89.3-216.1
		S580,237.9,522.1,179.9z M473.8,565c-44.7,44.7-105,70-169,70s-123.1-25.3-169-70c-44.7-44.7-70-105-70-169s25.3-123.1,70-169
		c44.7-44.7,105-70,169-70s123.1,25.3,169,70c44.7,44.7,70,105,70,169C543.8,460,518.4,520.3,473.8,565z"/>
	<polygon points="454.5,362.2 338.6,362.2 338.6,246.3 271,246.3 271,362.2 155.1,362.2 155.1,431 271,431 271,546.9 338.6,546.9 
		338.6,431 454.5,431 	"/>
</g>
</svg>
