<?xml version="1.0" encoding="utf-8"?>
<!-- Generator: Adobe Illustrator 18.1.1, SVG Export Plug-In . SVG Version: 6.00 Build 0)  -->
<svg version="1.1" id="Слой_1" xmlns="http://www.w3.org/2000/svg" xmlns:xlink="http://www.w3.org/1999/xlink" x="0px" y="0px"
	 viewBox="0 0 612 792" enable-background="new 0 0 612 792" xml:space="preserve">
<g>
	<path d="M520.9,179.9c-58-57.9-135.2-89.3-216.1-89.3c-82.1,0-158.1,31.4-216.1,89.3C30.8,237.9-0.6,315.1-0.6,396
		s31.4,159.3,89.3,216.1c57.9,57.9,135.2,89.3,216.1,89.3c82.1,0,159.3-31.4,216.1-89.3c57.9-57.9,89.3-135.2,89.3-216.1
		S578.8,237.9,520.9,179.9z M472.6,565c-44.7,44.7-105,70-169,70s-123.1-25.3-169-70c-44.7-44.7-70-105-70-169s25.3-123.1,70-169
		c44.7-44.7,105-70,169-70s123.1,25.3,169,70c44.7,44.7,70,105,70,169S517.2,520.3,472.6,565z"/>
	<polygon points="453.3,362.2 337.4,362.2 337.4,246.3 269.8,246.3 269.8,362.2 153.9,362.2 153.9,431 269.8,431 269.8,546.9 
		337.4,546.9 337.4,431 453.3,431 	"/>
</g>
</svg>
