<?xml version="1.0" encoding="utf-8"?>
<!-- Generator: Adobe Illustrator 18.1.1, SVG Export Plug-In . SVG Version: 6.00 Build 0)  -->
<svg version="1.1" id="Слой_1" xmlns="http://www.w3.org/2000/svg" xmlns:xlink="http://www.w3.org/1999/xlink" x="0px" y="0px"
	 viewBox="187.1 258.1 50.3 40.3" enable-background="new 187.1 258.1 50.3 40.3" xml:space="preserve">
<g>
	<g>
		<path d="M225.4,294.1c-1.3,0-2.4-0.6-3.1-1.3c-0.4-0.4-0.4-1.2,0-1.6c0.4-0.4,1.2-0.4,1.6,0l0,0c0,0,0.4,0.4,1,0.6
			c0.4,0.1,1,0.2,1.8-0.6c0.8-0.8,0.7-1.4,0.6-1.8c-0.2-0.6-0.6-1-0.6-1c-0.4-0.4-0.4-1.2,0-1.6s1.2-0.4,1.6,0c1.2,1.2,2.2,3.8,0,6
			C227.3,293.7,226.3,294.1,225.4,294.1z"/>
	</g>
	<g>
		<path d="M218.8,296.3c-1.3,0-2.4-0.6-3.1-1.3c-0.4-0.4-0.4-1.2,0-1.6c0.4-0.4,1.2-0.4,1.6,0l0,0c0,0,0.4,0.4,1,0.6
			c0.4,0.1,1,0.2,1.8-0.6c0.8-0.8,0.7-1.4,0.6-1.8c-0.2-0.6-0.6-1-0.6-1c-0.4-0.4-0.4-1.2,0-1.6c0.4-0.4,1.2-0.4,1.6,0
			c1.2,1.2,2.2,3.8,0,6C220.8,295.9,219.8,296.3,218.8,296.3z"/>
	</g>
	<g>
		<path d="M212.3,298.4c-1.2,0-2.4-0.6-3.1-1.2c0,0,0,0,0,0L207,295c-0.4-0.4-0.4-1.2,0-1.6l0,0c0,0,0.4-0.4,0.6-1
			c0.1-0.4,0.2-1-0.6-1.8c-0.8-0.8-1.4-0.7-1.8-0.6c-0.6,0.2-1,0.6-1,0.6c-0.4,0.4-1.2,0.4-1.6,0s-0.4-1.2,0-1.6
			c1.2-1.2,3.8-2.2,6,0c1.7,1.7,1.5,3.7,0.7,5.1l1.5,1.5c0.1,0.1,0.5,0.4,1,0.5c0.7,0.2,1.2,0,1.8-0.5c0.6-0.6,0.7-1.1,0.5-1.8
			c-0.2-0.6-0.5-1-0.5-1c-0.4-0.5-0.4-1.2,0.1-1.6c0.5-0.4,1.2-0.4,1.6,0.1c1.1,1.2,2.1,3.8,0,5.9
			C214.3,298.1,213.3,298.4,212.3,298.4z"/>
	</g>
	<g>
		<path d="M205.6,296.3c-0.9,0-2-0.4-2.9-1.3c-1.2-1.2-1.6-2.7-1.1-4.2c0.3-1,1-1.7,1.1-1.8c0.4-0.4,1.2-0.4,1.6,0
			c0.4,0.4,0.4,1.2,0,1.6l0,0c0,0-0.4,0.4-0.6,1c-0.1,0.4-0.2,1,0.6,1.8c0.8,0.8,1.4,0.7,1.8,0.6c0.6-0.2,1-0.6,1-0.6
			c0.4-0.4,1.2-0.4,1.6,0c0.4,0.4,0.4,1.2,0,1.6C208,295.7,206.8,296.3,205.6,296.3z"/>
	</g>
	<g>
		<path d="M229.7,289.7c-1.3,0-2.4-0.6-3.1-1.3c-0.4-0.4-0.4-1.2,0-1.6c0.4-0.4,1.2-0.4,1.6,0c0,0,0.4,0.4,1,0.6
			c0.4,0.1,1,0.2,1.8-0.6c0.8-0.8,0.7-1.4,0.6-1.8c-0.2-0.6-0.6-1-0.6-1l-2.2-2.2c0,0,0,0,0,0l-10.5-10.5h-7.8l-1.8,1.8
			c-2.2,2.2-4.3,3.2-6.2,2.8c-1.7-0.3-2.9-1.6-4.1-2.8c-0.2-0.2-0.3-0.5-0.3-0.8c0-0.3,0.1-0.6,0.3-0.8c0,0,2.2-2.2,6.5-6.5
			c4.2-4.2,13.2-3,15.7-2.6l3.9-3.9c0.2-0.2,0.5-0.3,0.8-0.3s0.6,0.1,0.8,0.3l10.9,10.9c0.4,0.4,0.4,1.2,0,1.6l-4.2,4.2l-1.9,5.6
			l1.7,1.7c0.1,0.1,0.7,0.8,1.1,1.8c0.5,1.5,0.1,3-1.1,4.2C231.7,289.4,230.7,289.7,229.7,289.7z M210,269h8.7
			c0.3,0,0.6,0.1,0.8,0.3l9.6,9.6l1.6-4.8c0.1-0.2,0.2-0.3,0.3-0.4l3.5-3.5l-9.3-9.3l-3.5,3.5c-0.3,0.3-0.7,0.4-1,0.3
			c-0.1,0-10.3-2-14.2,1.9c-2.8,2.8-4.7,4.7-5.7,5.7c0.7,0.7,1.4,1.2,2.1,1.3c1.1,0.2,2.5-0.5,4.1-2.1l2.2-2.2
			C209.4,269.2,209.7,269,210,269z"/>
	</g>
	<g>
		<path d="M194.7,289.7c-0.9,0-2-0.4-2.9-1.3c-2.2-2.2-1.2-4.8,0-6l4.4-4.4c1.2-1.2,3.8-2.2,6,0c2.2,2.2,1.2,4.8,0,6
			c-0.4,0.4-1.2,0.4-1.6,0s-0.4-1.2,0-1.6l0,0c0,0,0.4-0.4,0.6-1c0.1-0.4,0.2-1-0.6-1.8c-0.8-0.8-1.4-0.7-1.8-0.6
			c-0.6,0.2-1,0.6-1,0.6l-4.4,4.4l0,0c0,0-0.4,0.4-0.6,1c-0.1,0.4-0.2,1,0.6,1.8c0.8,0.8,1.4,0.7,1.8,0.6c0.6-0.2,1-0.6,1-0.6
			c0.4-0.4,1.2-0.4,1.6,0s0.4,1.2,0,1.6C197.1,289.1,195.9,289.7,194.7,289.7z"/>
	</g>
	<g>
		<path d="M199,294.1c-1.1,0-2.1-0.5-2.9-1.3c-1.2-1.2-1.6-2.7-1.1-4.2c0.3-1,1-1.7,1.1-1.8l4.4-4.4c0.1-0.1,1.4-1.3,3.1-1.3
			c1,0,2.1,0.5,2.9,1.3c2.2,2.2,1.2,4.8,0,6l-4.4,4.4C202,292.9,200.8,294.1,199,294.1z M197.8,288.4c0,0-0.4,0.4-0.6,1
			c-0.1,0.4-0.2,1,0.6,1.8c0.4,0.4,0.8,0.6,1.3,0.6c0.8,0,1.4-0.6,1.4-0.6l4.4-4.4l0,0c0,0,0.4-0.4,0.6-1c0.1-0.4,0.2-1-0.6-1.8
			c-0.4-0.4-0.8-0.6-1.3-0.6c-0.8,0-1.4,0.6-1.4,0.6L197.8,288.4L197.8,288.4z"/>
	</g>
	<g>
		<path d="M216.6,295.3c-0.3,0-0.6-0.1-0.8-0.3l-4.4-4.4c-0.4-0.4-0.4-1.2,0-1.6c0.4-0.4,1.2-0.4,1.6,0l4.4,4.4
			c0.4,0.4,0.4,1.2,0,1.6C217.1,295.2,216.9,295.3,216.6,295.3z"/>
	</g>
	<g>
		<path d="M223.1,293.1c-0.3,0-0.6-0.1-0.8-0.3l-6.5-6.5c-0.4-0.4-0.4-1.2,0-1.6c0.4-0.4,1.2-0.4,1.6,0l6.5,6.5
			c0.4,0.4,0.4,1.2,0,1.6C223.7,293,223.4,293.1,223.1,293.1z"/>
	</g>
	<g>
		<path d="M227.5,288.8c-0.3,0-0.6-0.1-0.8-0.3l-6.5-6.5c-0.4-0.4-0.4-1.2,0-1.6c0.4-0.4,1.2-0.4,1.6,0l6.5,6.5
			c0.4,0.4,0.4,1.2,0,1.6C228,288.7,227.8,288.8,227.5,288.8z"/>
	</g>
	<g>
		<path d="M194.8,282.2c-0.5,0-0.9-0.3-1.1-0.8l-2.1-6.3l-4.2-4.2c-0.2-0.2-0.3-0.5-0.3-0.8s0.1-0.6,0.3-0.8l10.9-10.9
			c0.4-0.4,1.2-0.4,1.6,0l3.9,3.9c1.4-0.2,4.9-0.7,8.4-0.3c0.6,0.1,1.1,0.6,1,1.3c-0.1,0.6-0.6,1.1-1.3,1c-4.1-0.4-8.3,0.4-8.3,0.4
			c-0.4,0.1-0.8,0-1-0.3l-3.5-3.5l-9.3,9.3l3.5,3.5c0.1,0.1,0.2,0.3,0.3,0.4l2.2,6.5c0.2,0.6-0.1,1.3-0.7,1.5
			C195,282.2,194.9,282.2,194.8,282.2z"/>
	</g>
</g>
</svg>
