<?xml version="1.0" encoding="utf-8"?>
<!-- Generator: Adobe Illustrator 18.1.1, SVG Export Plug-In . SVG Version: 6.00 Build 0)  -->
<svg version="1.1" id="Слой_1" xmlns="http://www.w3.org/2000/svg" xmlns:xlink="http://www.w3.org/1999/xlink" x="0px" y="0px"
	 viewBox="0 0 612 792" enable-background="new 0 0 612 792" xml:space="preserve">
<g>
	<g>
		<path d="M466.6,593.8c-15.8,0-29.2-7.3-37.7-15.8c-4.9-4.9-4.9-14.6,0-19.5c4.9-4.9,14.6-4.9,19.5,0l0,0c0,0,4.9,4.9,12.2,7.3
			c4.9,1.2,12.2,2.4,21.9-7.3c9.7-9.7,8.5-17,7.3-21.9c-2.4-7.3-7.3-12.2-7.3-12.2c-4.9-4.9-4.9-14.6,0-19.5
			c4.9-4.9,14.6-4.9,19.5,0c14.6,14.6,26.8,46.2,0,73C489.7,589,477.6,593.8,466.6,593.8z"/>
	</g>
	<g>
		<path d="M386.3,620.6c-15.8,0-29.2-7.3-37.7-15.8c-4.9-4.9-4.9-14.6,0-19.5c4.9-4.9,14.6-4.9,19.5,0l0,0c0,0,4.9,4.9,12.2,7.3
			c4.9,1.2,12.2,2.4,21.9-7.3c9.7-9.7,8.5-17,7.3-21.9c-2.4-7.3-7.3-12.2-7.3-12.2c-4.9-4.9-4.9-14.6,0-19.5
			c4.9-4.9,14.6-4.9,19.5,0c14.6,14.6,26.8,46.2,0,73C410.6,615.7,398.5,620.6,386.3,620.6z"/>
	</g>
	<g>
		<path d="M307.2,646.2c-14.6,0-29.2-7.3-37.7-14.6l0,0l-26.8-26.8c-4.9-4.9-4.9-14.6,0-19.5l0,0c0,0,4.9-4.9,7.3-12.2
			c1.2-4.9,2.4-12.2-7.3-21.9c-9.7-9.7-17-8.5-21.9-7.3c-7.3,2.4-12.2,7.3-12.2,7.3c-4.9,4.9-14.6,4.9-19.5,0
			c-4.9-4.9-4.9-14.6,0-19.5c14.6-14.6,46.2-26.8,73,0c20.7,20.7,18.3,45,8.5,62.1l18.3,18.3c1.2,1.2,6.1,4.9,12.2,6.1
			c8.5,2.4,14.6,0,21.9-6.1c7.3-7.3,8.5-13.4,6.1-21.9c-2.4-7.3-6.1-12.2-6.1-12.2c-4.9-6.1-4.9-14.6,1.2-19.5s14.6-4.9,19.5,1.2
			c13.4,14.6,25.6,46.2,0,71.8C331.6,642.5,319.4,646.2,307.2,646.2z"/>
	</g>
	<g>
		<path d="M225.7,620.6c-11,0-24.3-4.9-35.3-15.8c-14.6-14.6-19.5-32.9-13.4-51.1c3.7-12.2,12.2-20.7,13.4-21.9
			c4.9-4.9,14.6-4.9,19.5,0c4.9,4.9,4.9,14.6,0,19.5l0,0c0,0-4.9,4.9-7.3,12.2c-1.2,4.9-2.4,12.2,7.3,21.9c9.7,9.7,17,8.5,21.9,7.3
			c7.3-2.4,12.2-7.3,12.2-7.3c4.9-4.9,14.6-4.9,19.5,0c4.9,4.9,4.9,14.6,0,19.5C254.9,613.3,240.3,620.6,225.7,620.6z"/>
	</g>
	<g>
		<path d="M518.9,540.3c-15.8,0-29.2-7.3-37.7-15.8c-4.9-4.9-4.9-14.6,0-19.5c4.9-4.9,14.6-4.9,19.5,0c0,0,4.9,4.9,12.2,7.3
			c4.9,1.2,12.2,2.4,21.9-7.3c9.7-9.7,8.5-17,7.3-21.9c-2.4-7.3-7.3-12.2-7.3-12.2L508,444.2l0,0L380.2,316.4h-94.9l-21.9,21.9
			c-26.8,26.8-52.3,38.9-75.4,34.1c-20.7-3.6-35.3-19.5-49.9-34.1c-2.4-2.4-3.7-6.1-3.7-9.7c0-3.6,1.2-7.3,3.7-9.7
			c0,0,26.8-26.8,79.1-79.1c51.1-51.1,160.6-36.5,191-31.6l47.5-47.5c2.4-2.4,6.1-3.6,9.7-3.6s7.3,1.2,9.7,3.6l132.6,132.6
			c4.9,4.9,4.9,14.6,0,19.5l-51.1,51.1L533.5,432l20.7,20.7c1.2,1.2,8.5,9.7,13.4,21.9c6.1,18.3,1.2,36.5-13.4,51.1
			C543.3,536.7,531.1,540.3,518.9,540.3z M279.2,288.5h105.9c3.7,0,7.3,1.2,9.7,3.6l116.8,116.8l19.5-58.4c1.2-2.4,2.4-3.6,3.7-4.9
			l42.6-42.6L464.2,189.9l-42.6,42.6c-3.7,3.6-8.5,4.9-12.2,3.6c-1.2,0-125.3-24.3-172.8,23.1c-34.1,34.1-57.2,57.2-69.4,69.4
			c8.5,8.5,17,14.6,25.6,15.8c13.4,2.4,30.4-6.1,49.9-25.6l26.8-26.8C271.9,290.9,275.6,288.5,279.2,288.5z"/>
	</g>
	<g>
		<path d="M93.1,540.3c-11,0-24.3-4.9-35.3-15.8c-26.8-26.8-14.6-58.4,0-73l53.5-53.5c14.6-14.6,46.2-26.8,73,0s14.6,58.4,0,73
			c-4.9,4.9-14.6,4.9-19.5,0c-4.9-4.9-4.9-14.6,0-19.5l0,0c0,0,4.9-4.9,7.3-12.2c1.2-4.9,2.4-12.2-7.3-21.9
			c-9.7-9.7-17-8.5-21.9-7.3c-7.3,2.4-12.2,7.3-12.2,7.3L77.3,471l0,0c0,0-4.9,4.9-7.3,12.2c-1.2,4.9-2.4,12.2,7.3,21.9
			c9.7,9.7,17,8.5,21.9,7.3c7.3-2.4,12.2-7.3,12.2-7.3c4.9-4.9,14.6-4.9,19.5,0c4.9,4.9,4.9,14.6,0,19.5
			C122.3,533,107.7,540.3,93.1,540.3z"/>
	</g>
	<g>
		<path d="M145.4,593.8c-13.4,0-25.6-6.1-35.3-15.8c-14.6-14.6-19.5-32.9-13.4-51.1c3.7-12.2,12.2-20.7,13.4-21.9l53.5-53.5
			c1.2-1.2,17-15.8,37.7-15.8c12.2,0,25.6,6.1,35.3,15.8c26.8,26.8,14.6,58.4,0,73L183.1,578C181.9,579.2,167.3,593.8,145.4,593.8z
			 M130.8,524.5c0,0-4.9,4.9-7.3,12.2c-1.2,4.9-2.4,12.2,7.3,21.9c4.9,4.9,9.7,7.3,15.8,7.3c9.7,0,17-7.3,17-7.3l53.5-53.5l0,0
			c0,0,4.9-4.9,7.3-12.2c1.2-4.9,2.4-12.2-7.3-21.9c-4.9-4.9-9.7-7.3-15.8-7.3c-9.7,0-17,7.3-17,7.3L130.8,524.5L130.8,524.5z"/>
	</g>
	<g>
		<path d="M359.5,608.4c-3.7,0-7.3-1.2-9.7-3.6l-53.5-53.5c-4.9-4.9-4.9-14.6,0-19.5c4.9-4.9,14.6-4.9,19.5,0l53.5,53.5
			c4.9,4.9,4.9,14.6,0,19.5C365.6,607.2,363.2,608.4,359.5,608.4z"/>
	</g>
	<g>
		<path d="M438.6,581.7c-3.7,0-7.3-1.2-9.7-3.6l-79.1-79.1c-4.9-4.9-4.9-14.6,0-19.5c4.9-4.9,14.6-4.9,19.5,0l79.1,79.1
			c4.9,4.9,4.9,14.6,0,19.5C445.9,580.5,442.3,581.7,438.6,581.7z"/>
	</g>
	<g>
		<path d="M492.2,529.4c-3.7,0-7.3-1.2-9.7-3.6l-79.1-79.1c-4.9-4.9-4.9-14.6,0-19.5c4.9-4.9,14.6-4.9,19.5,0l79.1,79.1
			c4.9,4.9,4.9,14.6,0,19.5C498.2,528.1,495.8,529.4,492.2,529.4z"/>
	</g>
	<g>
		<path d="M94.3,449.1c-6.1,0-11-3.6-13.4-9.7l-25.6-76.7L4.3,311.6c-2.4-2.4-3.7-6.1-3.7-9.7s1.2-7.3,3.7-9.7l132.6-132.6
			c4.9-4.9,14.6-4.9,19.5,0l47.5,47.5c17-2.4,59.6-8.5,102.2-3.6c7.3,1.2,13.4,7.3,12.2,15.8c-1.2,7.3-7.3,13.4-15.8,12.2
			c-49.9-4.9-101,4.9-101,4.9c-4.9,1.2-9.7,0-12.2-3.6l-42.6-42.6L33.5,303.1L76,345.6c1.2,1.2,2.4,3.6,3.7,4.9l26.8,79.1
			c2.4,7.3-1.2,15.8-8.5,18.3C96.7,449.1,95.5,449.1,94.3,449.1z"/>
	</g>
</g>
</svg>
