<?xml version="1.0" encoding="utf-8"?>
<!-- Generator: Adobe Illustrator 18.1.1, SVG Export Plug-In . SVG Version: 6.00 Build 0)  -->
<svg version="1.1" id="Слой_1" xmlns="http://www.w3.org/2000/svg" xmlns:xlink="http://www.w3.org/1999/xlink" x="0px" y="0px"
	 viewBox="81.2 330.8 50.2 50.3" enable-background="new 81.2 330.8 50.2 50.3" xml:space="preserve">
<g>
	<path d="M128.6,334.4c0-0.4-0.3-0.7-0.7-0.7H89.5v-2.8h40.1c0.9,0,1.7,0.8,1.7,1.7v39.9h-2.8V334.4L128.6,334.4z M81.2,379.4v-40.9
		c0-0.9,0.8-1.7,1.7-1.7h40.9c0.9,0,1.7,0.8,1.7,1.7v40.9c0,0.9-0.8,1.7-1.7,1.7H82.9C81.9,381.2,81.2,380.4,81.2,379.4z M122,378.3
		c0.4,0,0.7-0.3,0.7-0.7v-37.3c0-0.4-0.3-0.7-0.7-0.7H84.7c-0.4,0-0.7,0.3-0.7,0.7v37.3c0,0.4,0.3,0.7,0.7,0.7H122z M118.7,347.2H88
		v2.8h30.6V347.2z M118.7,354.4H88v2.8h30.6V354.4z M118.7,361.5H88v2.8h30.6V361.5z M103.3,368.5H88v2.8h15.3L103.3,368.5
		L103.3,368.5z"/>
</g>
</svg>
