<?xml version="1.0" encoding="utf-8"?>
<!-- Generator: Adobe Illustrator 18.1.1, SVG Export Plug-In . SVG Version: 6.00 Build 0)  -->
<svg version="1.1" id="Слой_1" xmlns="http://www.w3.org/2000/svg" xmlns:xlink="http://www.w3.org/1999/xlink" x="0px" y="0px"
	 viewBox="0 0 612 792" enable-background="new 0 0 612 792" xml:space="preserve">
<g>
	<path d="M578.5,148.1c0-4.9-3.7-8.5-8.5-8.5H101.8v-34.1h488.9c11,0,20.7,9.8,20.7,20.7v486.4h-34.1V148.1H578.5z M0.6,696.7V198.1
		c0-11,9.8-20.7,20.7-20.7H520c11,0,20.7,9.8,20.7,20.7v498.6c0,11-9.8,20.7-20.7,20.7H21.3C9.1,718.6,0.6,708.9,0.6,696.7z
		 M498,683.3c4.9,0,8.5-3.7,8.5-8.5V220c0-4.9-3.7-8.5-8.5-8.5H43.3c-4.9,0-8.5,3.7-8.5,8.5v454.7c0,4.9,3.7,8.5,8.5,8.5H498z
		 M457.8,304.1H83.5v34.1h373.1v-34.1H457.8z M457.8,391.9H83.5V426h373.1v-34.1H457.8z M457.8,478.5H83.5v34.1h373.1v-34.1H457.8z
		 M270,563.8H83.5v34.1H270V563.8L270,563.8z"/>
</g>
</svg>
