<?xml version="1.0" encoding="utf-8"?>
<!-- Generator: Adobe Illustrator 18.1.1, SVG Export Plug-In . SVG Version: 6.00 Build 0)  -->
<svg version="1.1" id="Слой_1" xmlns="http://www.w3.org/2000/svg" xmlns:xlink="http://www.w3.org/1999/xlink" x="0px" y="0px"
	 viewBox="0 0 612 792" enable-background="new 0 0 612 792" xml:space="preserve">
<path d="M306.2,89.5l-94.4,191.6L0,312l153.1,149.3l-36.4,211.1l189.5-99.6l189.2,99.6l-36.4-211.1L612,312l-211.8-30.9L306.2,89.5z
	 M414.1,415.8l-24,24l5.6,33.3l13.9,81.9L336,516.5l-30.2-15.6l-30.2,15.6L202.4,555l13.9-81.9l5.6-33.3l-24-24l-59.7-58l82.6-12.5
	l33.3-4.5l14.6-30.2l37.1-75l37.1,75l14.6,30.2l33.3,4.5l82.6,12.5L414.1,415.8z"/>
</svg>
