<?xml version="1.0" encoding="utf-8"?>
<!-- Generator: Adobe Illustrator 18.1.1, SVG Export Plug-In . SVG Version: 6.00 Build 0)  -->
<svg version="1.1" id="Слой_1" xmlns="http://www.w3.org/2000/svg" xmlns:xlink="http://www.w3.org/1999/xlink" x="0px" y="0px"
	 viewBox="0 0 612 792" enable-background="new 0 0 612 792" xml:space="preserve">
<g>
	<path d="M306,90C137.1,90,0,227.1,0,396s137.1,306,306,306s306-137.1,306-306S474.9,90,306,90L306,90z M306,654.3
		C162.8,654.3,47.7,539.2,47.7,396c0-143.2,115.1-258.3,258.3-258.3S564.3,252.8,564.3,396C564.3,539.2,448,654.3,306,654.3
		L306,654.3z"/>
	<path d="M378.2,349.5h-52.6v-39.2c0-12.2,12.2-14.7,18.4-14.7h34.3V243H339c-53.9,0-66.1,39.2-66.1,63.6v41.6h-39.2v53.9H273v145.7
		h52.6V402.1h45.3L378.2,349.5z"/>
</g>
</svg>
