<?xml version="1.0" encoding="utf-8"?>
<!-- Generator: Adobe Illustrator 18.1.1, SVG Export Plug-In . SVG Version: 6.00 Build 0)  -->
<svg version="1.1" id="Слой_1" xmlns="http://www.w3.org/2000/svg" xmlns:xlink="http://www.w3.org/1999/xlink" x="0px" y="0px"
	 viewBox="0 0 612 792" enable-background="new 0 0 612 792" xml:space="preserve">
<path d="M341.5,12.8C184-6.5,24.2,105.7,11.7,266.7C-4.1,466.1,179.5,605.5,278.1,756.3c1.1,2.3,2.3,3.4,4.5,5.7
	c6.8,6.8,14.7,9.1,22.7,5.7c3.4-1.1,6.8-3.4,9.1-5.7c1.1-1.1,1.1-1.1,2.3-2.3l0,0c60.1-86.1,124.7-168.9,184.7-256.1
	c53.3-77.1,91.8-157.5,82.7-252.7C570.5,119.3,467.3,27.5,341.5,12.8z M437.9,519.4c-45.3,64.6-92.9,128.1-139.4,191.5
	c-86.1-121.3-204-222.1-239.1-371.7C19.7,168.1,171.5,44.5,333.6,53.6C459.4,60.4,541,165.8,543.3,287.1
	C544.4,374.3,485.5,452.5,437.9,519.4z"/>
<path d="M327,159.4c-95.2-17-188.1,41.9-204,139.4c-17,98.6,64.6,179.1,159.8,177.9c83.9-5.7,158.7-36.3,177.9-124.7
	C482.2,251.2,426.7,176.4,327,159.4z M417.6,348.7c-14.7,64.6-77.1,81.6-134.9,86.1c-75.9,1.1-130.3-60.1-116.7-136
	c13.6-82.7,102-111.1,173.4-94.1C412,221.7,432.4,281.8,417.6,348.7z"/>
</svg>
