<?xml version="1.0" encoding="utf-8"?>
<!-- Generator: Adobe Illustrator 18.1.1, SVG Export Plug-In . SVG Version: 6.00 Build 0)  -->
<svg version="1.1" id="Слой_1" xmlns="http://www.w3.org/2000/svg" xmlns:xlink="http://www.w3.org/1999/xlink" x="0px" y="0px"
	 viewBox="0 0 612 792" enable-background="new 0 0 612 792" xml:space="preserve">
<g>
	<path fill="#231F20" stroke="#000000" stroke-width="0.5" stroke-miterlimit="10" d="M592.1,163.7c0-54.6-85-97.6-193.2-97.6
		c-90.3,0-164.8,29.4-186.9,72.4l-1,2.1h3.1c5.2,0,10.5,0,16.8-1h1v-1c23.1-33.6,92.4-56.7,166.9-56.7c95.5,0,175.3,36.7,175.3,79.8
		c0,37.8-65.1,73.5-149.1,78.7H423v17.8h2.1c66.1-4.2,121.8-25.2,149.1-55.6v25.2c0,28.3,0,93.4-149.1,99.7H423v17.8h2.1
		c74.5-3.1,124.9-21,149.1-54.6v18.9c0,28.3,0,93.4-149.1,99.7H423v17.8h2.1c74.5-3.1,124.9-21,149.1-54.6v18.9
		c0,28.3,0,93.4-149.1,99.7H423v17.8h2.1c74.5-3.1,124.9-21,149.1-54.6v25.2c0,28.3,0,93.4-152.2,99.7h-1v1c-1,5.2-2.1,9.4-4.2,13.6
		l-1,2.1h2.1C591,590.9,591,509.1,591,478.6v-68.2h-1c1-7.3,1-14.7,1-19.9v-68.2l0,0c0-5.2,0-9.4,0-12.6v-67.2v-1
		c0-5.2,0-9.4,0-13.6v-64H592.1z"/>
	<path fill="#231F20" stroke="#000000" stroke-width="0.5" stroke-miterlimit="10" d="M213.1,155.3c-108.1,0-193.2,43-193.2,97.6
		v67.2c0,4.2,0,8.4,0,12.6l0,0v68.2c0,4.2,0,8.4,0,12.6l0,0v68.2c0,5.2,0,11.5,1,18.9h-1v68.2c0,29.4,0,120.7,194.2,120.7
		c191.1,0,191.1-88.2,191.1-120.7v-68.2h-1c1-7.3,1-14.7,1-18.9v-68.2l0,0c0-5.2,0-9.4,0-12.6v-68.2l0,0c0-5.2,0-9.4,0-12.6v-67.2
		C406.3,198.3,322.3,155.3,213.1,155.3L213.1,155.3z M213.1,332.7c-95.5,0-175.3-36.7-175.3-79.8s80.8-79.8,175.3-79.8
		c95.5,0,175.3,36.7,175.3,79.8C389.5,296,308.6,332.7,213.1,332.7L213.1,332.7z M215.2,419.8c-176.4,0-176.4-72.4-176.4-100.8
		v-25.2c30.4,34.6,98.7,56.7,175.3,56.7s144.9-22,175.3-56.7v25.2C389.5,349.5,389.5,419.8,215.2,419.8L215.2,419.8z M215.2,501.7
		c-176.4,0-176.4-72.4-176.4-99.7V382c27.3,37.8,87.1,56.7,176.4,56.7c88.2,0,147-18.9,174.3-54.6V403
		C389.5,431.4,389.5,501.7,215.2,501.7L215.2,501.7z M215.2,582.6c-176.4,0-176.4-72.4-176.4-99.7v-19.9
		c27.3,37.8,87.1,56.7,176.4,56.7c88.2,0,147-18.9,174.3-54.6v18.9C389.5,512.2,389.5,582.6,215.2,582.6L215.2,582.6z M215.2,673.9
		C38.8,673.9,38.8,598.3,38.8,570v-26.2c27.3,37.8,87.1,56.7,176.4,56.7c88.2,0,147-18.9,174.3-54.6V571
		C389.5,601.4,389.5,673.9,215.2,673.9L215.2,673.9z"/>
</g>
</svg>
