<?xml version="1.0" encoding="utf-8"?>
<!-- Generator: Adobe Illustrator 18.1.1, SVG Export Plug-In . SVG Version: 6.00 Build 0)  -->
<svg version="1.1" id="Слой_1" xmlns="http://www.w3.org/2000/svg" xmlns:xlink="http://www.w3.org/1999/xlink" x="0px" y="0px"
	 viewBox="0 0 50.5 50.8" enable-background="new 0 0 50.5 50.8" xml:space="preserve">
<g>
	<g>
		<defs>
			<rect id="SVGID_1_" x="0" y="0.3" width="50.5" height="50.5"/>
		</defs>
		<clipPath id="SVGID_2_">
			<use xlink:href="#SVGID_1_"  overflow="visible"/>
		</clipPath>
		<path clip-path="url(#SVGID_2_)" d="M42.3,0.6c-0.4-0.4-1.1-0.4-1.5,0l-15,15c-0.4,0.4-1.1,0.4-1.5,0l-15-15
			C9.1,0.1,8.4,0.1,8,0.6L0.3,8.2c-0.4,0.4-0.4,1.1,0,1.5l15,15c0.4,0.4,0.4,1.1,0,1.5l-15,15c-0.4,0.4-0.4,1.1,0,1.5L8,50.3
			c0.4,0.4,1.1,0.4,1.5,0l15-15c0.4-0.4,1.1-0.4,1.5,0l15,15c0.4,0.4,1.1,0.4,1.5,0l7.7-7.7c0.4-0.4,0.4-1.1,0-1.5l-15-15
			c-0.4-0.4-0.4-1.1,0-1.5l15-15c0.4-0.4,0.4-1.1,0-1.5L42.3,0.6z M42.3,0.6"/>
	</g>
</g>
</svg>
