<?xml version="1.0" encoding="utf-8"?>
<!-- Generator: Adobe Illustrator 18.1.1, SVG Export Plug-In . SVG Version: 6.00 Build 0)  -->
<svg version="1.1" id="Слой_1" xmlns="http://www.w3.org/2000/svg" xmlns:xlink="http://www.w3.org/1999/xlink" x="0px" y="0px"
	 viewBox="101.9 280 51.8 50.8" enable-background="new 101.9 280 51.8 50.8" xml:space="preserve">
<g>
	<path d="M141.8,330.9H103v-27l25.1-11.3l13.7,4.9V330.9z M105.1,328.7h34.7v-30l-11.6-4l-23,10.4V328.7z"/>
	<rect x="126.9" y="294.4" width="2.1" height="35.4"/>
	<g>
		<rect x="114.1" y="298.5" transform="matrix(-0.2959 -0.9552 0.9552 -0.2959 -143.4156 507.0184)" width="2.1" height="15.7"/>
		<rect x="114.2" y="305" transform="matrix(-0.206 -0.9785 0.9785 -0.206 -166.9566 489.894)" width="2.1" height="15.3"/>
		<rect x="114.2" y="311.4" transform="matrix(-0.1051 -0.9945 0.9945 -0.1051 -189.8969 467.062)" width="2.1" height="15.1"/>
		<rect x="107.7" y="324.3" width="15" height="2.1"/>
	</g>
	<polygon points="153.7,330.9 136.4,330.9 136.4,328.7 151.6,328.7 151.6,287 137.2,282.4 123.4,288.4 123.4,295.5 121.3,295.5 
		121.3,287.1 137,280 153.7,285.5 	"/>
	<rect x="145.2" y="289.4" width="2.1" height="4.1"/>
	<rect x="145.2" y="296.8" width="2.1" height="4.1"/>
	<rect x="145.2" y="304.2" width="2.1" height="4.2"/>
	<rect x="145.2" y="311.7" width="2.1" height="4.1"/>
	<rect x="145.2" y="319.1" width="2.1" height="4.1"/>
</g>
</svg>
