<?xml version="1.0" encoding="utf-8"?>
<!-- Generator: Adobe Illustrator 18.1.1, SVG Export Plug-In . SVG Version: 6.00 Build 0)  -->
<svg version="1.1" id="Слой_1" xmlns="http://www.w3.org/2000/svg" xmlns:xlink="http://www.w3.org/1999/xlink" x="0px" y="0px"
	 viewBox="0 0 50.8 39.8" enable-background="new 0 0 50.8 39.8" xml:space="preserve">
<g>
	<g>
		<defs>
			<rect id="SVGID_1_" x="0.4" y="0.3" width="50.2" height="39"/>
		</defs>
		<clipPath id="SVGID_2_">
			<use xlink:href="#SVGID_1_"  overflow="visible"/>
		</clipPath>
		<path clip-path="url(#SVGID_2_)" d="M50,6.4l-5.6-5.6c-0.7-0.7-1.7-0.7-2.4,0L18.8,24.1l-9.9-9.9c-0.7-0.7-1.7-0.7-2.4,0l-5.6,5.6
			c-0.7,0.7-0.7,1.7,0,2.4l16.7,16.7c0.3,0.3,0.8,0.5,1.2,0.5c0.4,0,0.9-0.2,1.2-0.5L50,8.8c0.3-0.3,0.5-0.7,0.5-1.2
			C50.5,7.1,50.3,6.7,50,6.4L50,6.4z M50,6.4"/>
	</g>
</g>
</svg>
