<?xml version="1.0" encoding="utf-8"?>
<!-- Generator: Adobe Illustrator 18.1.1, SVG Export Plug-In . SVG Version: 6.00 Build 0)  -->
<svg version="1.1" id="Слой_1" xmlns="http://www.w3.org/2000/svg" xmlns:xlink="http://www.w3.org/1999/xlink" x="0px" y="0px"
	 viewBox="0 0 54.1 59.5" enable-background="new 0 0 54.1 59.5" xml:space="preserve">
<g>
	<path d="M19.5,7.4c0,3.4-2.8,6.2-6.2,6.2c-3.4,0-6.2-2.8-6.2-6.2c0-3.4,2.8-6.2,6.2-6.2C16.7,1.2,19.5,4,19.5,7.4L19.5,7.4z
		 M19.5,7.4"/>
	<path d="M40.1,7.4c0,3.4-2.8,6.2-6.2,6.2c-3.4,0-6.2-2.8-6.2-6.2c0-3.4,2.8-6.2,6.2-6.2C37.3,1.2,40.1,4,40.1,7.4L40.1,7.4z
		 M40.1,7.4"/>
	<path d="M37.8,51.2l0,4.5c0,1.8,1.5,3.3,3.3,3.3h0c1.8,0,3.3-1.5,3.3-3.3v-4.5H37.8z M37.8,51.2"/>
	<path d="M2.8,34.9l0,20.7c0,1.8,1.5,3.3,3.3,3.3h0c1.8,0,3.3-1.5,3.3-3.3l0-19.6c1.4-0.5,2.5-1.6,2.9-3.2l1.1-5.1
		c1.7,2,4.6,3.2,9.7,3.9c0.1,0,0.2,0,0.3,0c1,0,1.9-0.6,2.3-1.6c4-0.2,6.5-1,8.1-2.7l1.2,5.5c0.3,1.4,1.2,2.4,2.3,3h1.6
		c0.3-1,1-1.7,1.9-2.2c-0.8-3.9-2-7.7-2.9-10.1c-0.7-1.2,0.3-1.6,0.8-0.4c0.5,1.3,2.3,7.1,3.1,10.8c-1.1,0.4-2,1.3-2.2,2.5h-4.7
		v13.7h18.6V36.5h-4.6c-0.2-1.2-1.1-2.2-2.2-2.5c0-0.2,0-0.4,0-0.6C46.1,31.8,42.4,17,42.4,17c-0.5-2.5-2.3-3.7-4.4-3.8l0,0
		c0,0-0.8,0-1.4,0.1c-0.7,0.1-1.3,0.5-1.3,0.5c-1.6,0.8-3.1,2.4-3.3,4.3c0,0.1-0.1,0.2-0.1,0.3c-0.4,2.9-0.8,4.8-1.7,5.6
		c-0.9,0.8-3,1.2-6.8,1.2c-0.9,0-1.6,0.5-2.1,1.2C19,26,17.7,25.4,17,24.6c-0.9-1.1-1.3-3-1.7-6.2c0-0.1,0-0.2-0.1-0.3
		c-0.2-1.9-1.7-3.5-3.3-4.3c0,0-0.6-0.3-1.3-0.5c-0.7-0.1-1.4-0.1-1.4-0.1l0,0C7,13.3,4.5,14.5,4,17L1.1,30.4
		C0.7,32.2,1.5,33.8,2.8,34.9L2.8,34.9z M44.1,36.3c0.2,0,0.3,0,0.5,0c0.5-0.1,1-0.4,1.3-0.7c0.6,0.1,1,0.5,1.2,1h-6
		c0.2-0.5,0.7-0.9,1.2-1C42.8,36,43.4,36.3,44.1,36.3L44.1,36.3z M44.1,36.3"/>
</g>
</svg>
