<?xml version="1.0" encoding="utf-8"?>
<!-- Generator: Adobe Illustrator 18.1.1, SVG Export Plug-In . SVG Version: 6.00 Build 0)  -->
<svg version="1.1" id="Слой_1" xmlns="http://www.w3.org/2000/svg" xmlns:xlink="http://www.w3.org/1999/xlink" x="0px" y="0px"
	 viewBox="0 0 612 792" enable-background="new 0 0 612 792" xml:space="preserve">
<g>
	<path d="M598.4,672.3v-80.9c0-4.9-1.9-8.8-4.9-11.7L359.6,345.8c7.8-20.5,11.7-41.9,11.7-63.3c-1-98.4-80.9-178.3-179.3-178.3
		S13.6,184,13.6,282.5S93.6,460.8,192,460.8c21.4,0,42.9-3.9,63.3-11.7l55.5,55.5c2.9,2.9,6.8,4.9,11.7,4.9h32.2v32.2
		c0,8.8,6.8,16.6,16.6,16.6h32.2v32.2c0,8.8,6.8,16.6,16.6,16.6h32.2v32.2c0,4.9,1.9,8.8,4.9,11.7l32.2,32.2
		c2.9,2.9,6.8,4.9,11.7,4.9h80.9C591.5,687.9,598.4,681,598.4,672.3z M507.7,655.7l-22.4-22.4v-41.9c0-8.8-6.8-16.6-16.6-16.6h-32.2
		v-32.2c0-8.8-6.8-16.6-16.6-16.6h-32.2v-32.2c0-8.8-6.8-16.6-16.6-16.6h-41.9l-58.5-58.5c-4.9-4.9-11.7-5.8-18.5-2.9
		c-18.5,8.8-39,12.7-60.4,12.7c-79.9,0-145.2-65.3-145.2-146.2S112.1,136.3,193,136.3s146.2,65.3,146.2,146.2
		c0,20.5-4.9,40.9-12.7,60.4c-2.9,5.8-1,13.6,2.9,18.5l236.8,236.8v58.5L507.7,655.7z"/>
	<path d="M193,233.7c0-26.3-22.4-48.7-48.7-48.7s-48.7,22.4-48.7,48.7s22.4,48.7,48.7,48.7C170.5,282.5,193,260.1,193,233.7z
		 M127.7,233.7c0-8.8,6.8-16.6,16.6-16.6c8.8,0,16.6,6.8,16.6,16.6c0,8.8-6.8,16.6-16.6,16.6C134.5,249.3,127.7,242.5,127.7,233.7z"
		/>
</g>
</svg>
