<?xml version="1.0" encoding="utf-8"?>
<!-- Generator: Adobe Illustrator 18.1.1, SVG Export Plug-In . SVG Version: 6.00 Build 0)  -->
<svg version="1.1" id="Слой_1" xmlns="http://www.w3.org/2000/svg" xmlns:xlink="http://www.w3.org/1999/xlink" x="0px" y="0px"
	 viewBox="0 0 612 792" enable-background="new 0 0 612 792" xml:space="preserve">
<g>
	<path d="M21,496.3c0-11.3,1.1-22.5,2.3-34.9c2.3-9,10.1-14.6,19.2-13.5c9,2.3,14.6,10.1,13.5,19.2c-2.3,10.1-2.3,19.2-2.3,29.3
		c0,0,0,0,0,1.1c0,0-1.1,22.5,4.5,40.6c0,0,0,0,0,1.1v1.1c3.4,14.6,9,28.2,14.6,40.6c0,0,0,0,0,1.1c11.3,23.7,24.8,43.9,38.3,59.7
		c31.5,32.7,37.2,73.2,37.2,89v1.1v4.5h83.4v-22.5c0-4.5,2.3-10.1,5.6-12.4c3.4-3.4,7.9-4.5,13.5-3.4c21.4,2.3,42.8,3.4,65.3,1.1
		c4.5-1.1,10.1,1.1,12.4,4.5c3.4,3.4,5.6,7.9,5.6,12.4v18h83.4v-20.3c0-10.1,3.4-42.8,34.9-72.1l3.4-2.3
		c14.6-16.9,50.7-63.1,59.7-90.1c2.3-6.8,9-11.3,15.8-11.3h18c5.6,0,10.1-4.5,10.1-10.1v-65.3c0-5.6-4.5-10.1-10.1-10.1h-19.2l0,0
		c-6.8,0-13.5-4.5-15.8-11.3c-11.3-34.9-34.9-67.6-66.5-93.5c-3.4-2.3-5.6-7.9-5.6-12.4c-6.8-23.7-2.3-50.7,13.5-75.5
		c-38.3,5.6-57.5,23.7-67.6,38.3c-4.5,5.6-11.3,9-18,5.6c-15.8-5.6-31.5-9-48.4-10.1c-9-1.1-15.8-10.1-14.6-18c1.1-9,9-15.8,18-14.6
		c14.6,2.3,29.3,4.5,42.8,9c15.8-18,41.7-38.3,84.5-42.8c12.4-2.3,24.8,4.5,30.4,14.6c6.8,10.1,6.8,23.7,0,34.9
		c-10.1,18-14.6,33.8-10.1,49.6c30.4,27,54.1,58.6,67.6,93.5h7.9c23.7,0,42.8,19.2,42.8,42.8v65.3c0,23.7-19.2,42.8-42.8,42.8h-6.8
		c-16.9,38.3-59.7,89-63.1,92.4c-1.1,1.1-1.1,1.1-2.3,2.3l-3.4,3.4c-22.5,20.3-23.7,42.8-23.7,47.3v21.4c0,16.9-14.6,30.4-30.4,30.4
		h-87.9c-16.9,0-30.4-14.6-30.4-30.4v-2.3c-12.4,1.1-23.7,0-36.1-1.1v3.4c0,16.9-14.6,30.4-30.4,30.4h-87.9
		c-15.8,0-30.4-12.4-30.4-29.3c0-1.1,0-2.3,0-2.3v-5.6c-1.1-12.4-4.5-42.8-28.2-67.6c-16.9-18-32.7-40.6-45.1-67.6
		c-7.9-14.6-14.6-30.4-18-47.3l0,0C19.9,524.4,21,498.5,21,496.3z M146.1,191c68.7,0,125.1,55.2,125.1,125.1
		c0,68.7-55.2,125.1-125.1,125.1C77.4,441.1,21,385.9,21,316C22.2,246.2,77.4,191,146.1,191z M146.1,223.6
		c-50.7,0-91.3,40.6-91.3,91.3s40.6,91.3,91.3,91.3s91.3-40.6,91.3-91.3C237.3,265.3,196.8,223.6,146.1,223.6z M286.9,200
		c-47.3,0-87.9-38.3-87.9-87.9c0-48.4,38.3-87.9,87.9-87.9c48.4,0,87.9,38.3,87.9,87.9C374.8,160.5,334.2,200,286.9,200z
		 M286.9,166.2c30.4,0,54.1-23.7,54.1-54.1c0-30.4-23.7-54.1-54.1-54.1c-30.4,0-54.1,23.7-54.1,54.1S256.5,166.2,286.9,166.2z"/>
	<circle cx="403" cy="417.4" r="37.2"/>
</g>
</svg>
