<?xml version="1.0" encoding="utf-8"?>
<!-- Generator: Adobe Illustrator 18.1.1, SVG Export Plug-In . SVG Version: 6.00 Build 0)  -->
<svg version="1.1" id="Слой_1" xmlns="http://www.w3.org/2000/svg" xmlns:xlink="http://www.w3.org/1999/xlink" x="0px" y="0px"
	 viewBox="0 0 612 792" enable-background="new 0 0 612 792" xml:space="preserve">
<path d="M603.6,174.9l-41.4,41.4c-4.9,4.9-13.4,4.9-18.3,0l-70.6-70.6c-4.9-4.9-4.9-13.4,0-18.3l41.4-41.4c11-11,29.2-11,40.2,0
	l48.7,48.7C614.6,145.7,614.6,164,603.6,174.9z M529.4,245.5L298.2,476.7c-4.9,8.5-13.4,8.5-18.3,3.6l-70.6-70.6
	c-4.9-4.9-4.9-13.4,0-18.3l231.2-231.2c4.9-4.9,13.4-4.9,18.3,0l70.6,70.6C534.3,237,534.3,244.3,529.4,245.5z M259.3,509.5
	l-99.8,34.1l-2.4,1.2c-2.4,1.2-6.1,0-8.5-2.4s-3.6-6.1-2.4-8.5v-2.4l34.1-99.8v-2.4c0-1.2,1.2-2.4,2.4-2.4c3.6-3.6,9.7-3.6,13.4,0
	l66.9,66.9c3.6,3.6,3.6,9.7,0,13.4c-1.2,1.2-1.2,1.2-2.4,2.4L259.3,509.5z M327.4,183.5h-264v442.9h442.9v-264
	c0-17,14.6-31.6,31.6-31.6c17,0,31.6,14.6,31.6,31.6V658c0,4.9-1.2,8.5-2.4,12.2c-4.9,11-15.8,19.5-29.2,19.5l0,0H31.8
	c-17,0-31.6-14.6-31.6-31.6V151.8c0-17,14.6-31.6,31.6-31.6h295.7c17,0,31.6,14.6,31.6,31.6C359.1,170.1,344.5,183.5,327.4,183.5z"
	/>
</svg>
