<?xml version="1.0" encoding="utf-8"?>
<!-- Generator: Adobe Illustrator 18.1.1, SVG Export Plug-In . SVG Version: 6.00 Build 0)  -->
<svg version="1.1" id="Слой_1" xmlns="http://www.w3.org/2000/svg" xmlns:xlink="http://www.w3.org/1999/xlink" x="0px" y="0px"
	 viewBox="361.7 241.6 50.3 50.3" enable-background="new 361.7 241.6 50.3 50.3" xml:space="preserve">
<path d="M411.3,249.6l-3.4,3.4c-0.4,0.4-1.1,0.4-1.5,0l-5.8-5.8c-0.4-0.4-0.4-1.1,0-1.5l3.4-3.4c0.9-0.9,2.4-0.9,3.3,0l4,4
	C412.2,247.2,412.2,248.7,411.3,249.6z M405.2,255.4l-19,19c-0.4,0.7-1.1,0.7-1.5,0.3l-5.8-5.8c-0.4-0.4-0.4-1.1,0-1.5l19-19
	c0.4-0.4,1.1-0.4,1.5,0l5.8,5.8C405.6,254.7,405.6,255.3,405.2,255.4z M383,277.1l-8.2,2.8l-0.2,0.1c-0.2,0.1-0.5,0-0.7-0.2
	c-0.2-0.2-0.3-0.5-0.2-0.7l0-0.2l2.8-8.2l0-0.2c0-0.1,0.1-0.2,0.2-0.2c0.3-0.3,0.8-0.3,1.1,0l5.5,5.5c0.3,0.3,0.3,0.8,0,1.1
	c-0.1,0.1-0.1,0.1-0.2,0.2L383,277.1z M388.6,250.3h-21.7v36.4h36.4v-21.7c0-1.4,1.2-2.6,2.6-2.6c1.4,0,2.6,1.2,2.6,2.6v24.3
	c0,0.4-0.1,0.7-0.2,1c-0.4,0.9-1.3,1.6-2.4,1.6l0,0h-41.6c-1.4,0-2.6-1.2-2.6-2.6v-41.6c0-1.4,1.2-2.6,2.6-2.6h24.3
	c1.4,0,2.6,1.2,2.6,2.6C391.2,249.2,390,250.3,388.6,250.3z"/>
</svg>
