<?xml version="1.0" encoding="utf-8"?>
<!-- Generator: Adobe Illustrator 18.1.1, SVG Export Plug-In . SVG Version: 6.00 Build 0)  -->
<svg version="1.1" id="Слой_1" xmlns="http://www.w3.org/2000/svg" xmlns:xlink="http://www.w3.org/1999/xlink" x="0px" y="0px"
	 viewBox="0 0 612 792" enable-background="new 0 0 612 792" xml:space="preserve">
<g transform="translate(0,-1036.3622)">
	<g transform="matrix(0.93960084,0,0,0.93960084,-18.37881,-79.349854)">
		<path d="M345.8,1275.9c-174,0-316.1,142.1-316.1,316.1s142.1,314.9,316.1,314.9s314.9-140.9,314.9-314.9
			S519.8,1275.9,345.8,1275.9z M345.8,1312.6c153.9,0,277,124.3,277,278.2s-123.1,277-277,277s-278.2-123.1-278.2-277
			C67.6,1438,191.9,1312.6,345.8,1312.6z M345.8,1440.4c-50.9,0-93.5,41.4-93.5,92.3c0,10.7,8.3,18.9,18.9,18.9
			c10.7,0,18.9-8.3,18.9-18.9c0-30.8,24.9-55.6,55.6-55.6s55.6,24.9,55.6,55.6c0,22.5-13,40.2-30.8,49.7
			c-22.5,9.5-34.3,29.6-39.1,49.7c-4.7,18.9-3.6,39.1-3.6,56.8c-1.2,10.7,7.1,18.9,17.8,20.1c10.7,1.2,18.9-7.1,20.1-17.8
			c0-1.2,0-1.2,0-2.4c0-17.8-1.2-35.5,2.4-48.5c3.6-13,8.3-20.1,20.1-24.9c30.8-15.4,52.1-46.2,52.1-82.9
			C438.2,1481.8,396.7,1440.4,345.8,1440.4z M345.8,1729.2c-10.7,0-18.9,8.3-18.9,18.9s8.3,18.9,18.9,18.9
			c10.7,0,18.9-8.3,18.9-18.9S356.5,1729.2,345.8,1729.2z"/>
	</g>
</g>
</svg>
