<?xml version="1.0" encoding="utf-8"?>
<!-- Generator: Adobe Illustrator 18.1.1, SVG Export Plug-In . SVG Version: 6.00 Build 0)  -->
<svg version="1.1" id="Слой_1" xmlns="http://www.w3.org/2000/svg" xmlns:xlink="http://www.w3.org/1999/xlink" x="0px" y="0px"
	 viewBox="0 0 612 792" enable-background="new 0 0 612 792" xml:space="preserve">
<g>
	<path d="M14.6,625.6h107.8v92.1c0,4.2,1,8.4,4.2,11.5c3.1,3.1,6.3,4.2,11.5,4.2h79.5c4.2,0,7.3-1,10.5-4.2
		c3.1-3.1,4.2-6.3,4.2-11.5v-92.1h241.7c4.2,0,8.4-1,10.5-4.2c3.1-3.1,4.2-6.3,4.2-11.5v-60.7c0-4.2-1-8.4-4.2-11.5
		c-3.1-3.1-6.3-4.2-10.5-4.2H232.2v-56.5h162.2c63.8,0,116.1-19.9,155.9-58.6c40.8-38.7,60.7-88.9,60.7-150.6
		s-19.9-111.9-60.7-150.6c-40.8-38.7-92.1-58.6-155.9-58.6H137c-4.2,0-8.4,1-11.5,4.2c-3.1,3.1-4.2,6.3-4.2,11.5v300.2H14.6
		c-4.2,0-8.4,1-10.5,4.2C1,381.9,0,385,0,389.2v71.1c0,4.2,1,8.4,4.2,10.5c3.1,3.1,6.3,4.2,10.5,4.2h106.7v56.5H14.6
		c-4.2,0-8.4,1-10.5,4.2C1,538.8,0,541.9,0,547.2v60.7c0,4.2,1,8.4,4.2,11.5C6.3,624.6,10.5,625.6,14.6,625.6L14.6,625.6z
		 M232.2,161.1H385c33.5,0,60.7,9.4,81.6,29.3c20.9,19.9,31.4,46,31.4,77.4c0,32.4-10.5,57.5-31.4,77.4
		c-20.9,19.9-48.1,29.3-81.6,29.3H232.2V161.1z"/>
</g>
</svg>
