<?xml version="1.0" encoding="utf-8"?>
<!-- Generator: Adobe Illustrator 18.1.1, SVG Export Plug-In . SVG Version: 6.00 Build 0)  -->
<svg version="1.1" id="Слой_1" xmlns="http://www.w3.org/2000/svg" xmlns:xlink="http://www.w3.org/1999/xlink" x="0px" y="0px"
	 viewBox="0 0 612 792" enable-background="new 0 0 612 792" xml:space="preserve">
<g>
	<path d="M20.8,274.8c12.2,0,20.8-9.8,20.8-20.8v-90.6l137.1,137.1c3.7,3.7,9.8,6.1,14.7,6.1c4.9,0,11-2.4,14.7-6.1
		c8.6-8.6,8.6-22,0-30.6L72.2,132.8h90.6c12.2,0,20.8-9.8,20.8-20.8s-9.8-20.8-20.8-20.8h-142C8.6,91.2,0,101,0,112v142
		C0,265,9.8,274.8,20.8,274.8L20.8,274.8z"/>
	<path d="M591.2,517.2c-12.2,0-20.8,9.8-20.8,20.8v90.6l-142-140.8c-8.6-8.6-22-8.6-30.6,0s-8.6,22,0,30.6l142,142h-90.6
		c-12.2,0-20.8,9.8-20.8,20.8c0,12.2,9.8,20.8,20.8,20.8h142c12.2,0,20.8-9.8,20.8-20.8v-142C612,527,602.2,517.2,591.2,517.2
		L591.2,517.2z"/>
	<path d="M183.6,487.8l-142,142v-90.6c0-12.2-9.8-20.8-20.8-20.8C8.6,518.4,0,528.2,0,539.2v142C0,693.4,9.8,702,20.8,702h142
		c12.2,0,20.8-9.8,20.8-20.8c0-12.2-9.8-20.8-20.8-20.8H72.2l142-142c8.6-8.6,8.6-22,0-30.6C205.6,479.2,192.2,479.2,183.6,487.8
		L183.6,487.8z"/>
	<path d="M591.2,90h-142c-12.2,0-20.8,9.8-20.8,20.8s9.8,20.8,20.8,20.8h90.6L402.7,268.7c-8.6,8.6-8.6,22,0,30.6
		c3.7,3.7,9.8,6.1,14.7,6.1c4.9,0,11-2.4,14.7-6.1l137.1-137.1v90.6c0,12.2,9.8,20.8,20.8,20.8c12.2,0,20.8-9.8,20.8-20.8v-142
		C612,99.8,602.2,90,591.2,90L591.2,90z"/>
</g>
</svg>
