<?xml version="1.0" encoding="utf-8"?>
<!-- Generator: Adobe Illustrator 18.1.1, SVG Export Plug-In . SVG Version: 6.00 Build 0)  -->
<svg version="1.1" id="Слой_1" xmlns="http://www.w3.org/2000/svg" xmlns:xlink="http://www.w3.org/1999/xlink" x="0px" y="0px"
	 viewBox="0 0 612 792" enable-background="new 0 0 612 792" xml:space="preserve">
<g>
	<path d="M306,90C137.1,90,0,227.1,0,396s137.1,306,306,306s306-137.1,306-306S474.9,90,306,90L306,90z M306,654.3
		C162.8,654.3,47.7,539.2,47.7,396S162.8,137.7,306,137.7S564.3,252.8,564.3,396S449.2,654.3,306,654.3L306,654.3z"/>
	<path d="M459,294.4c-4.9,2.4-20.8,8.6-35.5,11c9.8-4.9,23.3-23.3,25.7-36.7c-8.6,6.1-29.4,14.7-39.2,14.7l0,0
		c-11-13.5-28.2-20.8-45.3-20.8c-34.3,0-63.6,30.6-63.6,68.5c0,4.9,0,9.8,1.2,14.7l0,0c-47.7-1.2-102.8-26.9-133.4-71
		c-19.6,35.5-2.4,75.9,19.6,89.4c-7.3,1.2-20.8-1.2-28.2-7.3c0,23.3,9.8,55.1,49,66.1c-7.3,4.9-20.8,3.7-25.7,2.4
		c2.4,19.6,28.2,46.5,56.3,46.5c-9.8,12.2-44.1,35.5-86.9,28.2c29.4,19.6,62.4,30.6,99.1,30.6c101.6,0,181.2-89.4,176.3-198.3l0,0
		c0,0,0,0,0-1.2v-1.2C438.2,322.6,450.4,310.3,459,294.4L459,294.4z"/>
</g>
</svg>
